<mxfile host="app.diagrams.net" modified="2023-04-07T10:55:29.430Z" agent="Mozilla/5.0 (Macintosh; Intel Mac OS X 10_15_7) AppleWebKit/537.36 (KHTML, like Gecko) Chrome/112.0.0.0 Safari/537.36" etag="cQHhJg0yhsAShkpKDtAR" version="21.1.5" type="device">
  <diagram name="Seite-1" id="UIDVkd7DMZMNwN_8uAOF">
    <mxGraphModel dx="1434" dy="771" grid="1" gridSize="10" guides="1" tooltips="1" connect="1" arrows="1" fold="1" page="1" pageScale="1" pageWidth="827" pageHeight="1169" math="0" shadow="0">
      <root>
        <mxCell id="0" />
        <mxCell id="1" parent="0" />
        <mxCell id="OdF2z77MT5YZGHmNSJxc-6" style="edgeStyle=orthogonalEdgeStyle;rounded=0;orthogonalLoop=1;jettySize=auto;html=1;entryX=0.5;entryY=0;entryDx=0;entryDy=0;" parent="1" source="OdF2z77MT5YZGHmNSJxc-3" target="OdF2z77MT5YZGHmNSJxc-5" edge="1">
          <mxGeometry relative="1" as="geometry" />
        </mxCell>
        <mxCell id="OdF2z77MT5YZGHmNSJxc-3" value="" style="verticalLabelPosition=bottom;shadow=0;dashed=0;align=center;html=1;verticalAlign=top;shape=mxgraph.electrical.radio.aerial_-_antenna_1;" parent="1" vertex="1">
          <mxGeometry x="40" y="340" width="80" height="100" as="geometry" />
        </mxCell>
        <mxCell id="S38nwoEREeJHjfIfCg4B-1" style="edgeStyle=orthogonalEdgeStyle;rounded=0;orthogonalLoop=1;jettySize=auto;html=1;exitX=1;exitY=0.51;exitDx=0;exitDy=0;exitPerimeter=0;entryX=0;entryY=0.5;entryDx=0;entryDy=0;" edge="1" parent="1" source="OdF2z77MT5YZGHmNSJxc-4" target="OdF2z77MT5YZGHmNSJxc-21">
          <mxGeometry relative="1" as="geometry" />
        </mxCell>
        <mxCell id="OdF2z77MT5YZGHmNSJxc-4" value="" style="sketch=0;aspect=fixed;pointerEvents=1;shadow=0;dashed=0;html=1;strokeColor=none;labelPosition=center;verticalLabelPosition=bottom;verticalAlign=top;align=center;fillColor=#00188D;shape=mxgraph.mscae.enterprise.usb" parent="1" vertex="1">
          <mxGeometry x="100" y="720" width="50" height="23" as="geometry" />
        </mxCell>
        <mxCell id="OdF2z77MT5YZGHmNSJxc-8" style="edgeStyle=orthogonalEdgeStyle;rounded=0;orthogonalLoop=1;jettySize=auto;html=1;exitX=0.5;exitY=1;exitDx=0;exitDy=0;entryX=0.5;entryY=0;entryDx=0;entryDy=0;" parent="1" source="OdF2z77MT5YZGHmNSJxc-5" target="OdF2z77MT5YZGHmNSJxc-7" edge="1">
          <mxGeometry relative="1" as="geometry" />
        </mxCell>
        <mxCell id="OdF2z77MT5YZGHmNSJxc-5" value="Loop Amplifier" style="whiteSpace=wrap;html=1;aspect=fixed;" parent="1" vertex="1">
          <mxGeometry x="40" y="470" width="80" height="80" as="geometry" />
        </mxCell>
        <mxCell id="OdF2z77MT5YZGHmNSJxc-9" style="edgeStyle=orthogonalEdgeStyle;rounded=0;orthogonalLoop=1;jettySize=auto;html=1;exitX=0.5;exitY=1;exitDx=0;exitDy=0;entryX=0;entryY=0.5;entryDx=0;entryDy=0;entryPerimeter=0;" parent="1" source="OdF2z77MT5YZGHmNSJxc-7" target="OdF2z77MT5YZGHmNSJxc-4" edge="1">
          <mxGeometry relative="1" as="geometry">
            <mxPoint x="70" y="700" as="sourcePoint" />
          </mxGeometry>
        </mxCell>
        <mxCell id="OdF2z77MT5YZGHmNSJxc-7" value="RTL SDR" style="whiteSpace=wrap;html=1;aspect=fixed;" parent="1" vertex="1">
          <mxGeometry x="40" y="584.5" width="80" height="80" as="geometry" />
        </mxCell>
        <mxCell id="OdF2z77MT5YZGHmNSJxc-20" value="" style="group" parent="1" vertex="1" connectable="0">
          <mxGeometry x="240" y="420" width="700" height="700" as="geometry" />
        </mxCell>
        <mxCell id="OdF2z77MT5YZGHmNSJxc-21" value="" style="whiteSpace=wrap;html=1;aspect=fixed;" parent="OdF2z77MT5YZGHmNSJxc-20" vertex="1">
          <mxGeometry width="550" height="550" as="geometry" />
        </mxCell>
        <mxCell id="OdF2z77MT5YZGHmNSJxc-23" value="" style="points=[];aspect=fixed;html=1;align=center;shadow=0;dashed=0;image;image=img/lib/allied_telesis/computer_and_terminals/Server_Desktop.svg;" parent="OdF2z77MT5YZGHmNSJxc-20" vertex="1">
          <mxGeometry x="18.756756756756758" width="42.599999999999994" height="54" as="geometry" />
        </mxCell>
        <mxCell id="OdF2z77MT5YZGHmNSJxc-28" value="CW Skimmer" style="swimlane;whiteSpace=wrap;html=1;" parent="OdF2z77MT5YZGHmNSJxc-20" vertex="1">
          <mxGeometry x="140.29" y="80" width="300.11" height="200" as="geometry" />
        </mxCell>
        <mxCell id="OdF2z77MT5YZGHmNSJxc-40" value="Port 7300" style="edgeStyle=orthogonalEdgeStyle;rounded=0;orthogonalLoop=1;jettySize=auto;html=1;exitX=1;exitY=0.5;exitDx=0;exitDy=0;entryX=1;entryY=0.5;entryDx=0;entryDy=0;" parent="OdF2z77MT5YZGHmNSJxc-20" source="OdF2z77MT5YZGHmNSJxc-31" target="OdF2z77MT5YZGHmNSJxc-35" edge="1">
          <mxGeometry relative="1" as="geometry" />
        </mxCell>
        <mxCell id="OdF2z77MT5YZGHmNSJxc-31" value="Persistence" style="swimlane;whiteSpace=wrap;html=1;" parent="OdF2z77MT5YZGHmNSJxc-20" vertex="1">
          <mxGeometry x="220.00027027027028" y="400" width="300.1081081081081" height="110" as="geometry" />
        </mxCell>
        <mxCell id="OdF2z77MT5YZGHmNSJxc-36" value="RBN Aggregator" style="rounded=0;whiteSpace=wrap;html=1;" parent="OdF2z77MT5YZGHmNSJxc-20" vertex="1">
          <mxGeometry x="290.0037837837838" y="230" width="131.29729729729732" height="40" as="geometry" />
        </mxCell>
        <mxCell id="OdF2z77MT5YZGHmNSJxc-34" value="" style="shape=image;html=1;verticalAlign=top;verticalLabelPosition=bottom;labelBackgroundColor=#ffffff;imageAspect=0;aspect=fixed;image=https://cdn1.iconfinder.com/data/icons/CrystalClear/48x48/apps/vnc.png" parent="OdF2z77MT5YZGHmNSJxc-20" vertex="1">
          <mxGeometry x="219.99594594594598" y="165" width="48" height="48" as="geometry" />
        </mxCell>
        <mxCell id="OdF2z77MT5YZGHmNSJxc-37" value="" style="shape=image;verticalLabelPosition=bottom;labelBackgroundColor=default;verticalAlign=top;aspect=fixed;imageAspect=0;image=data:image/png,iVBORw0KGgoAAAANSUhEUgAAAOAAAADgCAMAAAAt85rTAAABOFBMVEUxMTFJSUn//wAAgAD///8AAAAwMDAAggAKCgoAhQAzKDO0tBYAewAsLCwFBTMAOwAdHR2mpgC7uwBfXwA2Ni8sLDIlJSUzLDMSaRL29gAyLjIbGzN2dgDe3gtZWSnFxRIAbAAAHgAAXgApPyk+Pj4AMABLS0sgUiAkSyQ5OTn19fUnJzJjY2M8PDzp6enGxsawsLCcnJyJiYnV1dVZWVkkJDJxcXHNzQ8AAB4WFhYhITMAABBGRgCRkZEWYxYACwArOisARQAQEDOHhx1SUipsbCZ1dSMRESCVlQBCQi2AgABUVADr6wBCQgA8PC5/fyIxMQC7u7saXBopPCkbFRsAVAAVPhUAZwAQMRAZLxkAHAAAFgBcXBmhoRUaGhGVlR8aGgAqKhAdHQlKSik8PABqajthYUE+PksbP7snAAANTUlEQVR4nO2d+2PSyBbHJzQMsDbaV1IBsd0acSE0vNqytlq9auur1qvrXu+q9bG6d////+BOQpKZJDPJBKaBZPn+Rpmh8+GcOefMAwAyW22z2x90pBaYW7WkzqDfNdsREIBJ173f0VY0TYFw1hhsQahoaJCdfpfJyABsdwcKYps1AJ8sygELkQpo9ju6lhG6saCmd/omJ6A5KGfGeFjIjMUBBTEEaPYkbdaDnVSa1AshBgGHe1CZ9TgnlwL3htGAw2a25l5QUGsOIwDbPSXD5htLUXptFqB5P9vmGwtq90064PAgD3wW4cGQBmjmhM8mNMOA7Vz451jIS9shwF5++CzCXhBwmL3aJUpQGfoBh83M5we/FDcfjgHNvcyWZyxpeyYB2JvnRd9kgrCHAU0pZw5qSZFMD3CQOwe1pA1cQLM467FcjsqmA9jPpQGRCftjwHYnhzPQktJp24BdPXchdCyody3Adj5DjCVt0EaA3XwVaaSg0kWA93NrQDvMgNyGGEsozAAzT8ukoKBmgu7KrEdxmVrpgrxm+bG0PshvkrCkDUCeY4wVZYCU4xiDoowEWvkGnOPj6YUWWmihhRZaaKGFFlpooYUWWmihf542f4rVZs2/XwVrUZ02N2szQqFq83olRqXl63c2yDHDjVvH20us5kvbx7+AGWzgsXbVNq+XlmJUKlWu3yIIN96iP0U1XzqegQ2nALQGff2hO2ZYQ3wxzSt3Uidk7ovyAS4tbf/mdYjlWyotp044NWBp2bDb144rPK1Lb1M+CZkacKlyzTqdqt1a5mpfWv4jXRvCXcYT3ICl7SNklM23fK3R+/EuXUA9HrBEFbbJA2RCyN185yhVJ+UBXKar5ALeLkPwcDumOX4/iqkemccDlrav0VVxR3ytqIBbLmDpd3rrHY+wWE7ThByAO0W6CMAVDFi5TW99zbV4pVhM88wcSlyA5bCOCMCyH5DW+prrpAgwTR/lA6T51E9MQNr4a3eWCMA0S9LUAGdkwdwDtnIOCBeAC8A5B9QXgNkGBHqT8UReAKV8WxDFmJwD7jbzDYim4AIw44A5n4MoiOYbsJV7wGa+AeHlAL6rhbU5G0BdGOBveNvw9n9+oejY4VsqpQoobA7ijd9SpRK1tV1aTnHTCUrCAAH3UcZOmkGmKQywdsx7GPWvjAJyH5/9nN7Oth1ERbko5wHoMjLg3bTOJuwgKgoQbhyzuQi+BykeTdgxRhQgqG1cr8R4aalin3Okt3EfAzhWhQnoNHAAEeHxMv3w09WyfVCVbiXKBKwdbzv6nQG47Dz//vYYEADtvzvv328z9H5nxz5Zu3tZOCHB3ShA+PDWHx9+tvSRDghuOQ0+PHABgfKu+HHcKaQPH+1jwnKKJ0t2HcMERDZc8U4vGWHPa+ACAqjcZRyXjpXqwRmwgygbECiaK8awcAP6X4NK+abaeApGAGZcMO+AYDfvgFK+AceFaJ4B9QVgtgWlfM9BbwrmFlD/xwMaV13VVf7XVeteN+uqMzx0Hz0yYnp6HeveGNX9+qOr3Kr7X0+KmYPG44KrxhNuQvVJw+v22EDL/DX3UfUkmrA+cluOnJFC8OTLqFrg1ogkdOu0iOVS/czrurrBWSbDjVWv01ndenwFP4aRl7XrW27DrfFAIXyMR8CjLR+gHgcI9r94Xauf4vzLkXGC3/Evv66skICFi6dRjoAB1361F1WHpwmsR/Rz5E1BJqD6BL+BoyM+wKvYQRs/ikXNB1i4okQQEoD2+jMxn9PPEfZQdhQ1HuN/sf6Uh2//tdeheqNYvAv9gIUrG2wvDQASIWASQMgDCNULr3PjM8deZu0cG/AZWuZrIABYuDjkBKw9HxWSymdB7KEReVB97jlp9QWHCQ/xrD37au8uBQEL7FDqBzROkwWYEKDEYUE0Yjy8raPYQAo38Lu+WrT3d0OADY1FGAD8UkgsApD00ChAaODu8SZUiUE5G1EhwELjEyPQ+AEhTjdVXl0hACU+QHCIZ+HoW8yOu/rdNwPtDfowICKk29APiPuNXtzg1EsPEBfacYBkYRLjpHB/C0P82wqhdMBCgx5KWYCrkduQAbmAOi8gGUgLryI/VWWc4JYXdghlABbWrtLeqShAyucwqPJcVOJ1URRIsV1GUSaEKo4wa1/dAwgqYPULrWhjA5bDjaPlCzFxyyWi+KreiIgzRFVwds87QSIAibqkukrxUpGAegJAuI9tMPrGLLXU76EUEQBcIzP3RT30CgIB/R4at+BVz/G42KnCCKeIAODqV7K2PA2VNOIAAx4au6KvkyZk1JJkZUUY0AdYfEkAVkNLTIEW9MXQeED1hKy56XGGrLJROvI+IOgDPHpNlF9bzwOEAgGlZBYkI2GDfr6uGjhdrpadFBECLKvE8qQwCthQGGDQQ+M3ndQT/M5v0T6ACw2cS85ekmfUfkBfMVdoPPL5uzjAgIdy7KoRa3tqnCGff+a7ZBAAhI9wiYlsqJCEogD9ZRofIJnER+GFITwnnvZfMggA+urVQuGLQcxoYYBBA/LsixJlGCXbG6/x1EI5vkiMOggI4AmRDs9OibpbFGBwBnIBwjpRh/0ZeLLGNiAF0CBt2LiJ06EgwEAVwwkI1JvYSEETkrtvrwLXfEKA6KUUcq2ObSgIMGxALkDf/qY/kMJDYv+0HLinRQH0bS0S28GCAHcnA/TPM9+qwjc/i4EvAaABwg1iCVbYOleFAoZCDCcgOdEaRSI2qMRO2uhB8J4WDRD9kUyHF2pNJGDYgJynS6Rjjf70zEQWof4czwZE6dBPCIUBhnMENyA0iG0gHGfI6uvCnyLYgAA88s5krH72T86IsSDFgLzngzUi+l357AHgkZ5RLtqxANWbZCh9vC8IMFzFJAAkt3UL95xZSG7E3KDcaWMBQpUIWoWzk31BFqQZkBvQF2fGgRTWiU23r5SrdixAlFw+EQn/7JMhBJA2AxMcYauhwxjDf9gS/p4YJiDq+53w0sa5KgCQkuQTAZIRs2FlewiJFPGVdpU3AhAc4ncHQT0VAEg3YIJLCPs4Q1fXf4W+I7xnRdpl8yhAMkChuPVoekC6ARMAQoU433xlqDeJh/S72FGAQN3A62T0/LSA1ByYDBAYp4RTfSaCTmGdfhc7EhCtDgnCqucNk1qQYcAkgOQmaWGdoF1lXHuOBkQ2pGx8TwjINGCii0C+wxjKYUtCwMAKfzoLsgyYCNB3GINFjzAcgIB2khsEPFJ5xMgRCQEBGViwAX8wDBgPCMmbDlTAtVc/bvLor7/+JwIQGBQTPisSW6HJAJFPhA6r7aNor7SvNnh15W8RgOp5yKdoVTY3ICIM2tACDGPHa/R3c7pSbazD0L+mVdn8gMhLA05hX0J4nfQaEOp3VKZG0oSAcCPwr6sRn7fiAfSnQweQOtfjAItFEYDkxQRbz1gRhhcQGE8agYEqgB6uUwGE52QNiRa/EZ945ANEK4sQILk4SxnQl+3ZOT4JIDDIFf74Qk/tKnmOkSogNIgCa5WV4xMBgn3iBMu5sVQ790/N9ACB+glfTLgX+ZFVYkm0Wo4ChBAH5y0nKKvPX2wliaVbwgCBerLu6GWkAZFunp6OW/6Irikh8F7znpt1asa3Vy/XuXVPHCBUDXy7KLoWVo2nfA2h+hS/pptWa++Oklx0EgaIhqOtuIq7SKp4LflfE9L+SJemYGkUvKx/bqIlNQnlEJCKlB9AKLGW8fkAtL73LteAPA6aZUDKeXyuACHluDpPgKErW3kD5JuA2QVkb/TmBJAvwGQXkHcCZhUwAV8mAblKtCwDcgeYjALyB5hsAibjyxwgb4WWVUAIksy/DAImSRAZBOSusDMKOAkf6+cY5lGT8El7oDWDXx6dSBAkKWBcdYCUEUDYSpgAxzoAnZR/tHJCTeSfSAMwSPPH5CYX9TZvvPQ+6GcBcFL7Sfob0E31t9Ym1KR8UmsIzLS/FjO5EtefWE0TtOc/yiRa//l10AbynE9CmHR9RErvyUDuKvPso1PxSXtDBNie50QxcfgcG7AvI0C5q8+vCScPL44BLcC5DTMTVmfYgAPZBpzXMDOdeyLt9hxAM/kXYqSgqfmkVtsBlOcwzEwXPW1ZIcYBNKU5m4UQRZfJs7ujTtsDlHtwvgLplNHFVvONjAHNvXly0ulnH5J+0CYA5WFzfpy0NUXtSfCZMgkoD+ekYLNynwA+qTmU/YBybx6WTXDK0gXrjRwEbN+fOaGA1OBI78khQNk8mC0htO4OCuIbtCmA8nCWhFBIanD47psyDVA2Z+al9twTZD5J6rVlOqDc7ikzyBbQXjWIwtObb0gkP6CVD9M2oj31hBkP5b+hHAUoD/dgikZEdELSuqfmgSlHA8pmT0rJiFBkYLGld960gzwhQIQ4KGuXXddARLcrmG631Q/hUQERYr+jX5oZrddtWQWZSNeU9L2DHgWPAYjiaXcAL8GMluFaluXE0iG8/pAOwgJE6vY72oqGKAVgQlvIcOLhdL3VPOix8KIAkRnNbn/QkVrT4rUsMF3sjLPU3OscDPpvhibVNx39H0Vq83p9jwuiAAAAAElFTkSuQmCC;" parent="OdF2z77MT5YZGHmNSJxc-20" vertex="1">
          <mxGeometry x="320" y="152" width="56" height="56" as="geometry" />
        </mxCell>
        <mxCell id="OdF2z77MT5YZGHmNSJxc-15" value="librtlsdr" style="swimlane;whiteSpace=wrap;html=1;" parent="OdF2z77MT5YZGHmNSJxc-20" vertex="1">
          <mxGeometry x="20" y="330" width="160" height="180" as="geometry">
            <mxRectangle x="20" y="330" width="90" height="30" as="alternateBounds" />
          </mxGeometry>
        </mxCell>
        <mxCell id="OdF2z77MT5YZGHmNSJxc-29" style="edgeStyle=orthogonalEdgeStyle;rounded=0;orthogonalLoop=1;jettySize=auto;html=1;exitX=0.5;exitY=0;exitDx=0;exitDy=0;entryX=0;entryY=0.5;entryDx=0;entryDy=0;" parent="OdF2z77MT5YZGHmNSJxc-20" source="OdF2z77MT5YZGHmNSJxc-15" target="OdF2z77MT5YZGHmNSJxc-28" edge="1">
          <mxGeometry relative="1" as="geometry" />
        </mxCell>
        <mxCell id="OdF2z77MT5YZGHmNSJxc-30" value="Port 1024" style="edgeLabel;html=1;align=center;verticalAlign=middle;resizable=0;points=[];" parent="OdF2z77MT5YZGHmNSJxc-29" vertex="1" connectable="0">
          <mxGeometry x="0.1429" y="3" relative="1" as="geometry">
            <mxPoint as="offset" />
          </mxGeometry>
        </mxCell>
        <mxCell id="OdF2z77MT5YZGHmNSJxc-35" value="" style="shape=image;verticalLabelPosition=bottom;labelBackgroundColor=default;verticalAlign=top;aspect=fixed;imageAspect=0;image=data:image/gif,R0lGODlhIAAgALMAAAAAAIAAAACAAICAAAAAgIAAgACAgICAgMDAwP8AAAD/AP//AAAA//8A/wD//////yH5BAEAAA0ALAAAAAAgACAAAwT/sMlJq70Y6c2739khjscwkOj4ICFhvMQAzK77Gs7rrOFtDAvAY+Uo3moG3gVxsAFnQwAu53spLUwX8AFARGE237XCNC0eQS/3aLAVxxTEYIXmCtcEW5gAn8gXCGdpQlJhPjssS0BeZzOEOjhVfRIIADKCUGuRLlR8iVgHM1tdUTV5kEmfZAcvlmmlR26ILTiWmYV5hrNLTW0EthpSkW06u6BVtgBuU0apPZxFM0VFBNPTzryQ0MvWxJMNTMMwxdbNnj2QOdBU1L7fWTdUw9U5nee88uVVsdhYQ/8AAwocoirOh4MHMwxcOLCgnxUII76DGPHgxIoIL2L8MJGhR4IZBTZGpBABADs=;" parent="OdF2z77MT5YZGHmNSJxc-20" vertex="1">
          <mxGeometry x="158.00027027027028" y="234" width="32" height="32" as="geometry" />
        </mxCell>
        <mxCell id="S38nwoEREeJHjfIfCg4B-5" value="" style="shape=image;verticalLabelPosition=bottom;labelBackgroundColor=default;verticalAlign=top;aspect=fixed;imageAspect=0;image=data:image/png,iVBORw0KGgoAAAANSUhEUgAAAUQAAACcCAMAAAAwLiICAAAA0lBMVEX///8AAACZKyr8/PwEBATFxcWxsbGYLCogICA7OztISEjf39+cKirv7++YLCvk5ORWVlbLy8vW1taMjIy3t7dPT0/09PS/v7+Tk5Oqqqrj4+NcXFwNDQ2ONDNiYmKfn58tLS00NDSDg4OZmZltbW1AQEAMAAB1dXXR0dEZGRkWAACMNTVoaGglJSWWMDKcKyUqDQ1IJCc3EROKOT9bHyNJHh5xLS5mLTBtLC8qCAcgBASONC1WICNAFRRkIyZWIyl4KitDFxtcKCVNGheHNTFpKSN65wIvAAAMiklEQVR4nO2dC1vaShPH2WwwAkm4CYjcBLkpEvraytuj1WPVfv+vdGZmNyGBEBJ8Wgzd39OnBQQb/87Mzu7MbjKZdMN5yCsbrymiALmKjWZ1MpkMqr2z7MWhryeV8N4lC3B9W20UD31V6aKeB930lYTy4fz25AJdWnl2HKoBCQNcVss8LGQq1rBQrf551iKpuDU9u+r2ySJJ2uvB9NBXmAJ6YIfV9Ret6Xnec+1Rk5NTK4PcSg68NjTqWSddL0YOisqrI6igRJsicpKsSOM2+fXEOsDFpQIQ6gosrRxhZJWJa43n9T94ZWmCZ+aMtaPVKZ6fCms8bahkJ5QCmFg3Shs0Ut68FDIOlTGGcQ6eehbjfWd9kvGyoMaXTTCRiTVk8J7Iv8vKpdcpgiz5GO9D4SwaYljjd19T6jjDUTfeW0HHchtVrPzeS0ofmE4nmNZZNQihc5UxBmE7Exw/MPUrUW6u8DEFSW7jvx0G5jp6tFpr9HMOipwk+8hARcUAPFOLm+CsGCT/yHGDS4mjTLLEjxZ9FCsaMNYmHCU46D5U+baPAc1AElGOOU38e5iDiAnLUFc4OCtD9OC4glNL9AkaihJ95Og5ARGvEn2C41DUUyHRxyR5yodzbdUh4QGx8Jqx00SrrDzTUgmOHy4XtRN9ph5/0eevgENI1FkzWXzDKFr4XVeUQnhmCCIWk4nYohmOQgIhcZ44by7CJ5Q3+ylQOTnRYj/WqAsqv/HgmSYoouO6dkT5Tn6lXryw8MklY32VJPqZYAlUjy48ob5Wr4YLsaVypqEy7XUgSxz/b6zvWJUtDL3msPOJWtReA4uld1+/oT7VkEZO0UlXaa36Z3XUsnSYi/2s4ATuh9P5gQLlNxrnqClsKlrrHu6fl/+/H1MIbR7qcj8n4JvjpWE6zzdojL3N3rrGCBUcP32fOZrpOC//MFUYWGfE9LuZsdA6ywdU8bIZkLHezKH33vxcPjqaptmG5nwfM9Y61NV+TizyZs0AW3x/ElFvciZGjXqlV6IXQMKOrZkm/LFN+zl5ZfDYyYKdLTXTtjXN6Dw/yNHjtJ/LzdtMhkKUUAMVQUTTcJ6wzq/yGz9Vpn+ZgYXZNhrj7NuNb+MFJjRf/v3asU3NQEuENy2M9xudDQ991Z8JGHoh5D11KNgRzuz5ydPx5gsYoSO/QhgaeLPOsoe+8M8EiAiSPDsrEcHcOu/L17e3+7fn5XvHsc2Fqfnp3Ccvah03nGPl84UinsS20Wtt23Hwb1TXCIj48kAlaiWiB8/0IOrNcFAxPIMj2UyMgBQFAxJq9vfkJeojh2ol948gl2dvBj4ybByLbfks4M1PSesxRw+vzxl79osIFglpjI3qCXtceCriA/v9RrUlrlNg+vhlzWPDAZnNBUxXsKNWBcQATchjZjFFhIFa6/yEiaHaexFkwthdJ46GOGxDqERvrqqhOcgljCtOTBEhTjo4b64oDQNgDf5bLG8mEe3ZHWNztZUqyBRXH0xzt4IaZTv2y1gVVzY4Y/rNSzxDRBwsIqjGhzUGuIQTU0HIG2f/MJZXdrhGN/7gDLNBe0mlUoUPTjsA7h/jhUT0Zlz5tpQlBsHB+dWOJ6Jp2i83WFxRIgbB+sqrocXLcUwHq6rp3DDA1/71Pd60CR76qvuFjbI8HkDysr7YFWqEBvw1e9DZdT2NSSLPnOTy+dG51MfKw5OJ+8UaPMtVSnmXHKYfJyN6WHHVnMDzlvhWtbyPfpF6anaLaEAiCSI635PvGPo0TBlbdVRW6MApuZ5XpLocdly7kIjiodfngVXPvnjoeyfV35vw97uxU0RRLMXZCrbHp9ESOaeqG+nGaQuOyHe52NTEhpk2/iPO8xIi6vQmt1WuBI9z4pudur00KxHHs/Vl1xARcV3RWY71xPv/Pg8tVIV2SIjdoEw0wnDcX6tD3pYtoTJ4Qgg1L0hL9EwRLdEnou6zxB4uhGm7RIQU0TSN2U/3P04hZH2ygYia9pm3vbuLX8A1lQLZV1OYiSsiy2akJQZEZNWTJnLSs/Csv4dYIsKfFzDEdnqTxApqRYMJL0tLoifCj8lnpZPzlYggqjxcZF1Eb+7LUcQvnVgimo9vLNV1gfpqZMEN8m0Sgmf4Bb4uOouYTx0UMUduL1pf10X0bZ0iEXcPLDbk45hop7qxMy8iGNgOngEypNjERWOhnMquizjKroTfKiKPLaJMtIepHVYyYlcsnbeCNnndFPbHaZMyhETpzgERrzkJT9OLD1uibZgaNuCkNL+RZIXJcUoZ8wWwRqr8Yu+lTBnXRWT1LEbJPrZ7bA4sRLOcocr9bhEh26Y+2nT3JFooSFfkNDDCSLu0dOatB2yIWBTJ0MmmiF6KU6Va30MMETWHImLKjx4h3wQ9RmSRJREKK6uQGCYiDeSnIZao6yIZr9JbbyJFpIHbxIioQ16VXl9GqkKXughpVdG83xPTEmJDxAsRCzF3bK3NWHyWiFOembldRGxZhPzGXo7pW6ZZRC6CYgONC7vaaLaH2xqZSBgz4SLSnHtep1PA/CLm5GLFFcYJnb1Hr4QZtrF4vKOlhzSu3/ioC8vBHXU1GSIrmb5vN0mYiJmW8PfumiVWgt83sokEpnvGwviFvzUr5T2JnATrku3hIJ2n7IU2TMh3hMREDJoY/ehsgi0iYpB9jgqJpqktzPd/jmPfCgbFS94nCTgFxSrOl71GwVAR0Qbhpz+PEBF+LW8RDRAGakh5du7P/ay/DQqKuJhPCSIGxS4eqtR2t+SEi0iT7vlguzvjBtOnKBE1e2EvbyilSrUvE3RbADlVEcep5AciQCI8Q+lfwbeKI2a5t/iwvWGJq4oDePzDzKBexNBylWNrHTmq/Okf+TcwQnPyQhNkL9d4ArvY/A4/n76+iiNEvHDTmfC5Mx6CqI+XIiiGiQhf6WCKOD8GCalVgblr2mLjO/6RIbEypKWvkVi1WYnIM5MQEdsSZtHxD+zeMZEwQ7TFejYdZHwEOjakbOJZWa7xi31NLSYVZn3UzmeJWIXR10X0sOj7soeZTTulwmKiQSNzipcRA1hCDJkXcqGCfBZWqHJX/gablugXkdfhw88OlqJCl2ZnT/D/5lOeZa8QPz/lhVxkil7LKguKiOOPewIVL4rXL8XTgIYkIqp892gbphlWr+q80S/kWDTMVLKIW+MoiGfiSXYFJkBF9wExpdfLG+/MZhu4zZ7Krr8eafFajNFUp9cWuIug82/iY0r+SjimQQ9fKSpqJCJaJNXzzc7rWFddYDEQB4X9nC0WNjU2gQ1qtCPNNDqv7BjWHf4ME5Dq/t2gXUAisbG1xcKZ/RjrdAyT0jAGNDm8hzzHoIwbfdpcGF9/Yj5wpSSMCXVY3L04OKRoonfp/RnPg2irGwDFhVNNi928vndoLcJ2Oks6DGJkKV+OCRcTc2B892MJ/Lp/IFUTnqj4V8PFXQ9dxmMxg7y9UMNyfLhIuGVjGRMS5rPHseTwJ/HdkBiFbDeVfskZBubUw4RHoyqIK/8tiU/UmLwXZz5fLigJ9yPrmeFcufK+rEQsqFF5X85cX1bHV+1PT4q4cZ9xRXzknZvndeXK+yOOmkzp5sdPgiwe9g99Hamm4BqicuZ9oXPzcVObWrXZH9HVrauy3geQt3aVtXzFXnDaOq7Hus24YgtcdDEeQz/xAbHE2JzmzY8Hh4utvTUVDz+C2Myv7jj1ESrCm1O+ce/AiEZmpjLtveF4qoTYrarYn3Mhoupc+gBWW3jz9NAXkmZkY7zKEj9AQRacT5Uz709eingM+x8PgzhTgqm78H0AvjoQK+EtshUrGr4epkNfyyeHpiLcu7sZ9zoceqt2OvcEN8U2+EnrtM3a7etcq9osu3uypiXfSYruxmnFFuqjQPMh6982p+Wrmq8zlnl7/xSh4HEwus52oprBIqnEEFFXWwWi4HTe5y4Ndbw/yKEv9VNjXTP/SbJbUHd4jebiNIZHt9USRASQGFq5nZaos5Hy52j4cKdH66xLKiopt3MWIyx21Ua0HVjDXRqCLaq4uIvyKNoacfCZoIzKHLfCM7x5zXaO0wN1s9cIMN7Ve+1oj0aFVWdTFOimUsat5ohfqBWUS++g3uxHOzSjKrQaqLeD2vBsaZeKJUvZ4lZcZSrVCKfGyHit7hMZA95oMffg8lDKKjDuAvUpXuW2+jOeCa1E3AHWq0CjYq+21aVLSsTYFJstKdu6Z6tJYBLq5WqYQR7P4ZO/Ga8MXZ82h5cBWzxXGu6FVWn0BpNurdQdnChn3hNlex+GPJvL9e0DTvv+Aw0DwPto0YsqAAAAAElFTkSuQmCC;" vertex="1" parent="OdF2z77MT5YZGHmNSJxc-20">
          <mxGeometry x="174" y="114" width="78.93" height="38" as="geometry" />
        </mxCell>
        <mxCell id="S38nwoEREeJHjfIfCg4B-7" value="" style="shape=image;verticalLabelPosition=bottom;labelBackgroundColor=default;verticalAlign=top;aspect=fixed;imageAspect=0;image=data:image/png,iVBORw0KGgoAAAANSUhEUgAAAQkAAAC+CAMAAAARDgovAAAAwFBMVEX///8klu0oVKEoUZ4kmfEoT5wnZLIlh9wnX60nU6EoW6kkk+okjeMAQZkAQ5r5+/0NR5wna7vBzOLo7fUoWKUmdcclgtUmcsMbTp8mesywvdjd4+46YagWS50li+AAkOxdf7pOb6/Q2Oiks9NYd7OBl8Nwibzn6/TI0uWLnsfDzeJGaqxyi72tutabrdBmgriVx/Xl8v1grvGGmsWfr9B0tvLN5fpLpe81ne6/3fmXx/W22fiq0fdpsvGCvvTE2fAATbrgAAAQNklEQVR4nO1dC3uiOBdWAmqACioqXqLVYqvV6nSn25nZ3Znv//+rj5yAAhKUq2J9n2emk8Gm5G1yrslJpXIJdFZjgQs8Xowu8lYXwKtJ+ETYMJtPl37FYvCi40gi7Gmhv176JQvBzjxBhCCg9aVfsghoJp0SSDDCYT+x8fAVRMWIMoFqqhIOtUWp+BLLA5gQFLHKg0yZaF/6NQsAMCHziRDppLgz8VWZUBQ2ePeL8lWZUA2hTofeF2re5ldkAqGeCEPfN+9M3Jm4M3FnonJn4oA7Ey7uTLi4M+HizoSLOxMu7ky4uDPhwsuE5GdC+rJMyMaEDr1rtLzNL8jEPVJzZ4LhzoQLFuVXeVSIJYtta8nBovxynZPvmNRQeZgY7fSH5HCyokjiAJ6Wg4lh0zyV4k2NUjAx1/OmoSxMWKdT3V+DiQ6BVLchh4Oluk9/AAmc5wYqCxOjJh1HS+EoQQVS3QIa8D6gNuB5TeV10C+L7gAmDK5dVBUNYIprOYkToIpHlI1GciY0LePRRgGYqEWYiNQeQF3+B6qUiJxszA0ZZjzcCFAm0JUy0W5ifTbPesQ8eJhwU90q++qkuj1MuA9U3+cOTAQesGZyJjpUqyF9UdASOTChIuTEE2pVT3PPhDhAMgzRQANvc8+EKiAnOd7wNxMy4WxlI0Yx0+LAxESS6mzowMSh6TLRRQYduuJvepjINno3dE0+XMx+Ti8TyMtEfd+8DBPaGDNDhe7nXOQw8iCulokt3fhrqDVw4fRdDkMP4FqZ0Kjta/dniyMQFlbucvNamVgR573ECayQ/Km4UiY08IbqoIZVGah4zGP4HlwpE09USjQce01pgO+Ss9i8UibW9pwALe6lIl9lep1MLHW/Ca/QBYJJribWdTKxMWkkwOPMqGBijfOUmlfJBMhLn6cv1kFq5ikqrpKJtn4UE2F2xUOO6yOO3yEFmBCCTGSVK4fF0av6AC+Cczw85PFFZZm60WJf7lc9zYNX3pNrMPSaDC9pN6s+JpSGzHLlcsvbTMAEdUKNYBhMhfXxlhMP1xmpCX8nOgnzFJrXyMQbCWgOB3KuRgWLY/LHKdKAbBQTSvZMgJiYHPfUg0mRKxMCP9WtgCvY4I4UXi8qV67Q4Hi8E3EQmQjrDCbFMs1wtZcOD2DNCUZPDUdPZomdWp3zgQHLqXI7qIOhTIbcF+h0jt6Wxz1oUjNFqGI4fmhy4YTIeKluJwUmoJMfiH5O+G/woG9efO9L9yGEZ1gUCGAllpnPzdxT4emATb9DQXPW4ZIJZA5Jmk/bFpELTwlseJcIWJghqsMGtbnNTTIiOvlvjsgAZOV5ZRqbCFqY7qRIYVK8wpRAciMchpPqNqKfJ+9APtUBxOaQ5XllGstF9XAmbOsGk2SH1Ic0+IMGVTEcCmyDQi2F97zv5Mp5HagnOqh2WQc9bgfUYPH9nikT0rE5AUx0kydZaf4kwoYUVbp40ufKIzponOpAOp8JEBRkW+nM20+rzc6yZjPr8Xnx0Z4f6eJwJqJMRGowpLa2+ZYXk/ccAcgQXPsf/NVRVVgmqKnrxDRNhDBGyDSJrjfN3VP0qjmHifz9jigmlCATbzpXYlbBYg2HSZrj7xHxCw8TE5bKVp2Jx5oeJlT2XJkwf5g1vUyEduBhwnmw72ASZML3wG0eMfHK16JsXwoX2NTXbzzNsmdCHEiIDV3yN48iNZIbqQnmyiUnSCUNfE3BE6mBoUuNYKSGZde7EpMnSPI2j5iY09XR5zBRY5rIBV0dDC4ZxOCEMDxMIAlCTgb8FLuJlHAmcsiVMyb6CLOhB5oBJl6otc1ZsPbrIFtjt7q9uj2jmHZS1PqgXzMEhw2sz15OMYECTATnRH5xTHfozpzwNY+YqBhUn3GY6Ld6E9DY/v+225NBDTMuTBzm+paRCYt+B28znxhOETxRBrLElsjHbTABRmYvQl1xIYo9MHrR7DaYmEdbg9FcgEzVQ/bslZGJCj0fcBTbPhMsRhZicpaSiaNk4Plgca3HYyLKyQSEFBtJiGCvE+qjlZIJiOnyXI9I0E5D5WVZmfjwbiSJQ8SEv1++nEx0aKdSPT4V1LM2rTAiSsqEswcxLg/ws3Az1Nj2eWCO3yEBE12nuWeifnauXPI2w3LlhtsMMsHIlyRfM4wJDeMIN4xHBMTH9BD70sdEtd5gSb9WA3x/p3lgQmnAcRWx2+hWPU1PrrzR8nbgNvdMKLUGeK+DRt9pqj4m9t9Ra9Q9HYQy4UQdY60P+3ctcDSonwlqfx3+dv/hiU8Efioz8H2RmrAOPPGJwAPnb2+kJvQNQplYQm3eOOYV22viTxjwmAjDFcas7LUxXLMsjXS+ecWWRkTgG5iIWG9gnEblyqkZfzJXbmTIRKe9ENzjuDHsTHZgLSJ/DGcDjODMP7znyVQ3y5Wf6mDC78Bgk4b7gYGHic5yaxm6c24TydxejzqZNFioNyIBwCRPo1cPB9sfLhi85z0WQeV30GVvbQx4HbjJdm4HMITxfDlcPRqEkH3K2Th7QrhJFUyOIjSjlUU7pXD55UE473neHWBdt0nAeP9hecCdhkc8sJiEYBpBGfGy021mMYNQPiBktOoxeGgwMnUrqDVezSLOR+cEhCSj34uo1OynQVS7bmL2YRtcGe1E2yWQ50+gGfEn+F8pCIB1YtQoC+fQADHteld2dqpgsj7Sni+YnRNv1EqFVn/Qq6tHMWs/Jiqrb66qk96g1RDcDTtYH4fkOJ7hkOWAl7q+ZpyaBz3JqXkvIMkrivXxU0jei22lS+DOXj/A2g0AY9KctUPzfx+cTZ03AFUKsIBMHc8+wl3wSuUxRVT4usH8CipYTdMkRNcN63ubR4MNes1MhDtUZkA4arezds+b1fZt+XJitxU1jhPE/64fbKtyjEMNNCh8m0xQeRmW2opi4iZXBz3dgY0Y+w9vVU5AHsO3a/MUZnROXPq184AQGY8KgYUTBMevHwl28e/QTdoTIlWh8bau0yyzwNuOUl7UUezTPqubZAJUKIl3Agz8Ds5O3/KC5n0xibeF/y1ip29pwQ64xFGhNtqJN2tdMcCq0iO8rTAsT6S8ygiwqsy4h+tfmvFTzNcOSJLFPt6iHZ/SLzvYlIh9NlIDt/zSL58pIPGqxy+3AI7HLRmZbA9Z+IahSFAjE98SE1CXJUkFjlXEIaoygkmJBFMCcuO3FNyG+hsJpISz+/t21CiYl8kO1XciDsyUEDTJkbCOlba+pVgNOKHmcxIiWM1V6UaUBwvthx1ROAerW/JGIVQV0wnd4/V2fDC2GQ0nrbwxuh2RCfv+9OQVrCLOGJYLbFNs6FmN87ALr4FUOoi95BqU4SnTsJUynYridHoJZQTJ8YSlWABQtSyjEIUy/fuT9vn5d+FcgMORolARBcksIzj98e52+v5jmkmX54IVxIyTHA9BZoJC+eH5jWh/FUtFxDmmswGR/kwsCiBCm8/Z158Z9HguwPMSzGS1efZ4odv3Iw4qnIvpL9rboqkT1u+v4iYFOyGQvu4hjeCh9BLuB+1rp+O9U1zcpICjEGnXRsVxPVJHa6Z/Ku7xEKfff4qaFKxSbFLPy4M0Z/UPmP5rd/Vowo63F41O1KKWBzvR1czgjh+4+iK1Zz79dKIdNhXNh6bd72cxTECFK4Gksan2+J7F8gCBOXN3CJuVwuYECImMCubOEx7L9mH6rcJEDhBB40b/FcMEExIpFagL6o+mNa6Uv+yOOqwIDstU/1WExS32s1GgDrZRJaHOxZSa2iNZN03doIcP34uYEuwgcDZCgqIDd+Cl/BXCpKhow8XiDfTZ7wKmBHM3zFl2VbXB90jrmoOk2KMIa0KcsFMbMXeNROE1RX2TA8C4cvCtiLWhgtpIlPLiQfNfipIU0x+/mPf1WYhTDheWpHXFg3giWdiZVWX68/efP79/FhOoYZfYHB13TAco351J0pyexsugmzMAB72yUxsuVtlMigLBiMj+NriOnrQS0oVQY/ozcyIc56M8k6KWtSFxQMe5eS/mG4lq7xIhfRCW5jqfe0qSVEIS1ZYkFZ43Epn6zIuIigZ+WJzQrqj04eB8wRs6RdXIlQhWrplffPT4hZQ+K2FQsHQR61D4hOQiIxys0dnDEu114ZxaN0mhGofFsXO+NnMOF9SfEbwSlV7NqWGA9N3/ipwSYp/dKpu5QeXHAkJO0etDFKv1lnEo0bysVP4tLLPhXJGA9aQbZ84FE5r8A6SiaM+GPQ0Cao7ZqbOiMn/ihN1qUcDt00uwNFvHlS6grfZa8qGmhUlm7uk77WchNoVzyTAiqe5zOhMrVs8Kqp94qpvUB10ob+Kp7IEXnrBAEQF9UWmBiAipMZMLWJzerR0F1U0wVDfxVPhApGkN/Rmn/OPYtvJkBdqec792mqETfeMRxqbeXD8dJ97+zpcKscpui8HH1Zdyw1LnlXXCJtHN8Sa8zksl1yiVOyGIkeuNugF8OLOCXoIiHcqbNM3182rJX6I5Sk1bQjhplOf0WeA4WAAVeLHaWLP1em3tFqvVtv3SObE+36s5USG6heoyjliegR0okNjm7HsuYTungiMtVJdhMP9cPFIqTDmutsphVlC331mr+V0fGwENqJBwXAvmPWNZYbu7bqJ1d4EJQaHBAsEkrsrKlAqx6lQuxMRIeg1iBthQZYr1x5jCQstMmYpKlxVMtJV33v5WNNilkiaO+9vIxsQS1b5TONLUN8WqzmMMaYg3wQpNnxoWxUlLcMMfj0XaUhyMDMKk9ireEvlMlwuEAq8OD81ZEW7nGVgwy5uQbSwuUuxUFquTvuvs2W7/lfBg43VMGBd4G2ux/pfIshBFddBwC7ya+s7Hg3ZhaaF9Z4W9McGbOAv2Pfa0oNdz1fbldQlZ+Ow6bbPbWBeWGCOr6cawx9v305938asagwuYDfv760zd/AjMgNlwNO+MLy0855bObifG5GHNLTp6jG/ncWFPhnpf3t/fjYm5O6qN3t6MZh+7Ufqd2Wkxf9adjZaINGer5ZlL9v2PcoILykK3Jnho0EMLvG6Ho/XmScPZDisRRitTR86NCESXre3yrIXy/mfK40K0V0SvXzOQ54bLprEK9/qGq9HmdfMSo/JnjtDaM504ZGBEo1eL4edp5ar9IwbMC4ibq72ulwTo0Vhx5YA2fp1XhtYFvQ8/Ok8z073DgEY0if5Q262G844Wyciv31SnssyBok56Tpj8ECK2RSS2tpExgNFssZpxbuS5DF7edqZOsGcQhDSb8my3WT2156PR+3sIKdrnn0m9N+i3ag3DVwXcCY6uF+3Tkmc0urT7cQRtuVo/wPUOh+EgVsmZYKMxXq/XM8t6pKDXYq/X47FsCMifKKDfRCXOg7wYnip7fNXQllvL9hKJeRQHZ5dfsDgwXIsdchcGhpVlGtb29ep+z4kwel3t1gZcBX7mfQ82RfSycDKePW8jwuTlRGfU/vhOCaG3o9Pr0ekU8KwbmAB07cB16WNrs3qbl3o5nIKmvczbw6ft982jNRuPDXbfj2GM17PZ4/Ni9TRsL0fRKuai+D8H39zPahpNnQAAAABJRU5ErkJggg==;" vertex="1" parent="OdF2z77MT5YZGHmNSJxc-20">
          <mxGeometry x="19.52" y="360" width="41.84" height="30" as="geometry" />
        </mxCell>
        <mxCell id="OdF2z77MT5YZGHmNSJxc-33" value="" style="aspect=fixed;html=1;points=[];align=center;image;fontSize=12;image=img/lib/azure2/general/Browser.svg;" parent="1" vertex="1">
          <mxGeometry x="670" y="200" width="62.5" height="50" as="geometry" />
        </mxCell>
        <mxCell id="OdF2z77MT5YZGHmNSJxc-38" value="HTML: Port 8080" style="edgeStyle=orthogonalEdgeStyle;rounded=0;orthogonalLoop=1;jettySize=auto;html=1;exitX=1;exitY=0.5;exitDx=0;exitDy=0;entryX=0.512;entryY=1.04;entryDx=0;entryDy=0;entryPerimeter=0;" parent="1" source="OdF2z77MT5YZGHmNSJxc-37" target="OdF2z77MT5YZGHmNSJxc-33" edge="1">
          <mxGeometry x="0.2892" y="-8" relative="1" as="geometry">
            <mxPoint as="offset" />
          </mxGeometry>
        </mxCell>
        <mxCell id="S38nwoEREeJHjfIfCg4B-6" value="" style="shape=image;verticalLabelPosition=bottom;labelBackgroundColor=default;verticalAlign=top;aspect=fixed;imageAspect=0;image=data:image/png,iVBORw0KGgoAAAANSUhEUgAAAMoAAAD6CAMAAADXwSg3AAAAqFBMVEX////XB1HXAE/WAEvVAELWAEjUAD/VAETVAEPXAE7VAEbUAD7UADz/+/3//f798/f87fL43OT1ztn65uz+9vniZYjyv83wssPxt8f209387/P0ydXrma/dQnD54OfhYITbMWbsorbaIl7leZfTADPng57kcpHeS3buqbzpjqbzw9HfTnjqlKzvrb/gVn7jbY7cOWrSACvZF1noiaLwp7/cKWjgYYHlhJpeg7GUAAARzklEQVR4nO1dCZOiuhbGLGyiiLu2Kyqtttvgfe/+/3/2AEGTGBAIaFNvvpqamnK6MYfkbN85SSTpL/7iL/6iJDS6HWtmeX/Gnx5JfjSCv0f/jFofHkg+3EbdnQ2u36vOh8cihNF807G2m2lNXp+s6MPZ1z/bL/OTw8qOwQJBqKg61rTF0Rosl32rG/xHY7CM1lhz+LnxpUVrBxWtFsHVkaLrCjKU//yzD8RozkZty9MeF6++Pj3WRLR7Mga1Z8BNt2la/a0z1WWEZNnenCBEtVW/++kR89HYLmTIkSOQRa7LSNVhOGEg+AeAKpwPfp9tNncasbLSAkBF/17+KittOTp3ZaWBpqOf/qcFiND+NmBeQQJAVd/9hqn5msrZVxYLgOXNp4UpRJAAWHFmwSPHo771fl/a/i5KkFpg0Rxrv/zBSJXh93vVp3OKtb45AZGKNRCIZczeKMnVKFgQCnj1NkH2rl6iIB7UgReYvkGQbk8WMr9pgA5Syyl9mX3VcNmCeFB/OtJiU64k1/KnJABUJg1oW68HlA9tyZwqbxHEA1AWF2gcypFk8t2qlWm4noTx5l+dlhEITGTXzecUAQCaD5BjbUK8L1ySK6plGQqAWFGhBnUv3dJcd3GZLhY2kP3UBWcKQIFc9CJbofTfrmFk2M6hP5ovVtt2p0k8pjX6Ou4c20B6ennUU6GS9NTUbxGri0Pb+5WxGc8dNUZbx9WVlOLgRXH5ZuM7rXsHeu0QSGDNmq+e2uqvbJQqbYOgKHc5XqT1ilA/NDI92trZaeJSDRcTx3TclCYY1Oc5TOeoJ79+U0AvgnCyYDoTDBQ3Z6LR2vCJJ+rpSNwot1NFKgAid5v/S8yN8mrmgSGakfXTSAIVLMqctOavvggYYvMyQGkkWfUbkrCN6b8KuYEsovuDNHOiTdvbb7stKorUncsvZIH5qxx944UUACpINuDFGQgL4uNoJFsYzc3LNH+9kERTas5gVGSyN3OTFxmc5nuupSauLqBeii+VNE/JCZHu5HnquJY42xAfi5YjwIu4tZ7H5P8kWnpcSk7kY1JPlAVlT5KXiW8H9UoQIsQgUUU1N1uU5y2vRMMoX0sRIkSyW8ZZ3+ImyZTISynrq8mEZFnkjNYmKb7DR/NULt92TFoTAGYh+8e7hEmByuJP2RXrZZIsMEuGfIm17gAbp+W+/Gr1Jsnq1NMHlsO4dwIwPLyplNNLyMGBm/oxixjnmDnfFcE0wa8paQmlfszkqtN39t+YtXjLA3BKDubCnRRgTModO4tRgrrgdCy/xfW2ELyjeENhkiCLmmqBnHmLVPn5QFPKKV5dcJoQ2eQRkXLJZRs+ugn0JYrRlu3loQcTjnc0lm8aPIN+vKfEMWHgbv3IaN2nNwGyRj3FYR67xIAS8xvorgn7J10rgk3Li5Yeu8QU7vttGg9V+GYtMdDfbroILGNDKO2b+/MPTXky5kD5pCSSZHOcHAi8p8Gzx0SOycYsQP2sJNKe1XwFKcbemyulnRy9/DDm67OrK8CUfrl4OBp8SQe9ZkgJZnX/zZYfABInHUVBBx8A3j51gdzpxgdi06fUUf4N7YC0z9dvtnaI1IS3/PXkj2SBOkNxGFHjinR3gRIG90R8od17xvoKlLbgUEOGRvzoLJZK089vGuorUPnT3Z1o8VrfYyYFXt4z0NdoUkmYbo0CDZ7EijJmspT8BYDicSVdBKhdsP9hIzbBZ+gioBbawNQd9bdXp/ff3nk16WdOqy0q7wBACaKTXtwINdoQy8UUf24jmfxAWdExDIAV2T4PsvE2TAyi2f6H7Zgwf0iHbbgwlTeXC4SZ9wSggntZuDQmhwJa8OlT3ejWwEGHB1p6oikZnZ6iU08GPgJp0CK9/7WYIBcHk3pl2N5/mpyfRcVEXubq0bEPNOwFghhqQIO66v0DaPIl9dcw/Vu3IotFU0Cdm5mmiXtYTKPvAEdP9ferXDbH0azlU4Ld1qx/OLkIQ8NJSREy1Il+8/S0FpyDSLnJZsG2eApsnqKav6YAZ/+s59ZhIctuunj1SNOu8CbEjnroOtA+NgsGhjAzPIr6LDV5cYx79yNHXqciCi0qDoPQvv06qW2NP0FJ8cnT5yrEkhjWQSRIIjNgXv+kqmLp1OjmYQZJJV81/68uS33JopWg5S12AOrlpc0154sUDyQpB+0khRwQFbsEbmbAcAFwnmP0JAZyuBBSZQn9xesYySHXjSwdb4ZpTyZfgVVjw/scBWUK7ZvCK2kL4uPNy+7EA2li1X24tLrsnJtMJJmpQMaBeXPu9Qzk7EumjVo48K5e7O8dmfUlC05KkMGCbFHcK/9C5SxAiVYkO1KGxYOC7QX9evBtxRIcI8rf65EFZ4iKMTspgrUtn4QrnggckOYYAL6hYOyX4PakRs9XULnwGjIdHGO+OjMFGVXI0TeCnuQSqJoJFbrgA29amHpMXN0iJQJ6M1VJKiOoWYmpdvfpbBMLTUrQr6QtRB4R92RKFP430PGz2KTc+pVEPSwXtCg270cadHlcF+pYC9KelIXojKDCfFDjqUqbiu/Foi9TAX66+DIKyQM6Y+G+cTp/VIX47sDKoAK5GgK0y+BWGJbUxKVtuODDBnHLWBy0KJhHGHfI/ExsHEHxTymn0ZVhtwCYPJciKbei5WxJvmEF/e8oqTeJIeoAetbqBslQCEWSAUtdjvny0GciRcTR6gUhipBX+fLXVyk+xQcjCgCcnyH5WF2kT8rnOkpx9AEYUbizT3Z/KQKGdKzGWZb06MTXrxld4aaHpChJpcpXCBwUEgvuT/FcNW2M+bNPiiKw0vc+QZCtBfgJXggX+3+0t+crNakrKH8EFlSmRFVlylPmG+h8hd9PYBMWTM0/iiDAFuXNhzj2v1ZkAK9h3jsnme8M/btPCNYpFmyBa8T7NbIzzD1zFyLpIrWf/KMIHqOU131BqDSw21xRukS+IrI+gvinoBITBw3CgHmRIrcQT8ZgAl6hG/THoNI2UIzOhPkC/KajLpGv6Pmj2lZgYMoTZWvdLRjczKQZLxkxiZlT8zu4TvAYVFqn+9C8JyN42ZWavITYJBJigaUeiVJSiN8cPxJ3vGzyE0ST6NKp5/eQs0AUZVRaG+8jcNEHY3+cz+KQ+9Pk/N90mxVQK62D7OEi1b1/fKX0bPcJUUB8BPQSN7WvKaW1iT/iKzT2VXr2rNeEKCIRlHkzhFjk0JWkMl6nTozSLxC1n5WB0BWhatfNPcHcvTGeHEmW/EEZe0mXPyGDZ7btYeQExiFFrfy5eY52R+okWfJH0IvaTV9mTpJIGGOhuPbW7wMyb4sNR7HjDu6O9v2Fa7bU8ieE89OEtxciKUILk9NJzrtSK8mOP3okQp6txXGB3UevFhYhKcLFzN+/8ApHz4YnFby796UD4O3H2px0lWDyBUIwSfpS8y/SppdczJLe46OGrYcmkpdNdB+l13xvNERY/M9l0AftqJkrBvfGO6CHc8eLFgldEUucQhuTpz3ma+/8SWhCOD62CkSTMuZ9C9GqIzQrUXUjl8KZh/hMeASU+7oBMHSjXJaCMMZiooSha76QgRu030BuwL3nhnxR6gWJEvU3Cp2B8wyyqQ1Exa4ul68jvL0IzSrdV5hoXwkDssh9fzT/bRELTJD6id5fvdBU8t495anMfSsgX5TuIyEW5K4jkynerUhiH44P4BGMaNwWn87tPghMUW4xanRSk+yxaY27HlpWf5dq9iIGX91KfS38LOb5BHkE/5tt6DS8tD5MjxIr5oP1GmGMZCOleQhZySDkDmsqjZjaL8FOihVVm/v7tMhJTXfmoAfqirJIxyN8hapC8t1x1YImQX8L5PYets3IB7wM9a3BLl0yEB21RuVBsXEnQcaK8aTdndQJuzCL2mgxibo69VT0B9FuKBTlS9Jufz+4wCiERNrc3Xc6702w/fl5iiBQbV7uYQYQa/u54XGaasozZ8kml9xBxzSIJLaW1AoNomaL8pTd6YMldo+p/ATZaJW38aih3ciawWOjKE5MQF5j/Ijsod1YpYqpqNIryplI9tbBfPrxbXRckS7Uj0WcQYqnDSldHELtsM/bztqoeT7JuulHdFyRIhBXEsdq4WkzupfqFVrkrOSOKL/W3m+Gp+/0wicquebF17EdIcklfaccWcETaIFykCnNwsbeuRLpS/ZtosOZ1Dg9MttgTlKDLNwLFIuA5xaXYYk5kgW6WTP960hqE+e+69kKvWRLq0AFzvrjhUmnMMCIZNHkbNM830sr47FKUMaogczTuKX9lPCnpOk6Usd/xipKTuVeBgdzlqfaYzRAzhp9kD3Tiki7Tc/75pb39VtfYyaR5uJa2iCmcVJqxL5WLTvX0CFMGP9wlLSYejLMjIF09rV9GO0lBGiaKogY2fQOAjvHYid3+ArxJQ1fMWbrfePiyzLCkT3R5N7LjNHqIXIbDaif87Qrk1sloEBvSIhOvT2DQeHz8ZqhcYpfuh1pvF3UqX56iPOF1tSWMOEjtv3w6Wt/2zo6J4o3yN3x2Kvm/mT81Ok90xqa5+wr+yL0Hm8LOPygexn0/wTWZ0IcuA2wbDvHGfH8bmd4riHIHNELFDv3eVFdYgeeUBHvAccZGHN/0G1ALhz/VOra4rSaeNicFgA938UA9ITzM16D8PcAF9MP0XfnWPPXu/l0ipIGIfYAocaK4RtgOBEaAJl9CRLHd3RPSJP9jMyS016D4R8nILo3gdzYLdLeRuMIMZSd1rAxPGH1pTQAqpojzpyTfWMFUr7mWdYgtr1Q3+yv7KTJ0TDSzsVc7El6liK76tsXWQP4EljWzuBsy7cjHYi50PwTRPTvXbuoliVqE4tc5EWhext5ah75qsZocO39RzOMuuyhbsi1i3PIfq5LEqhNLAUXSPoX5Pl62uU1xq1Op2WWspOKsph5uYo4tE+KrEzedb0lfUyQupm1Cn1jrYO7NqaT0TuOEGbOccEydgs+J3d0dddrOL1uR52Sz4WynwIIVOwdVB46x3NtvV4biuZeTs6///67ciYl7NyhouNwmZVxA6XZXl7nl4VtL6bOtV/KpcozztnBxuePN8wFztHSWklbHMvGlnMYqlrOxtOy0eAcHSyyCeSTcNizGv0ktprTMmKnBTpn9GtOOcwGVvFBTTr9qaYRG7CHOKG2dCjcT74FTfa6AL+c1yglei0dB/ZGCuGztT4Gk81YC85c3omnW33K24ZWNlpsIKZV1BhLHDepfujaAnG02Es+gPLOK1cKxYrVlrwX6H0eLYXNJn/LqdnZcWWnJbHj7leD9S2CLWIfBXMfRVVTlgBMPUTwPLqPgj35H1XWtTzfRIOKvmD+fWgxZ//D87Cakb6HA3OQza+4WSInaM0v7/CfN4C55Qd97AKpArCh8kngVlZXJPayoyr7FvYGk6oS4QGuzNF1v+faj+y40IeEip4G/kl06Cvbkm4G+vUYULEYSNzA9dvhUFlYpR0l4/SLu5LlA2DUpV7NYssNe/rONqUTs020CjjQF2xMh9VNXaQzFYxpxbclvBHMddNx98xWAaZLmzGx89o/iw5982KVp0UaUWZM9BaQz4LYQubhc3cSFwEqGgOwykvsvtUx9C6fHo4QlqS+KB+5irwwTEhZ0HY/WFaXuViSyT5WFKPCIcxRpgsv9QozF0NEyQJgZQuu/uHxlCxa7V1N0CXAwjSXXKtwut+idy5qRV7A+m40fpjT6s8VXmQbmoGFSq+6OfJRZi6UrTAFa7mkwlTZJHvoPayyNt1XN4LxcVTvi0xTtU2lJ2a2eFgygFGFm0c8XOuE60fzYLtQVQ3AyCUoMlzz+5OOlV1pV/TgyIB86UvSorKyzL6JAFND7vJYxPlTH8LQVcj99FBzhW+V/hiaB4W+uHzxjv2CJWHsGCStjCvNx3R6MnlbyKXC8+Lpv6M/mGVoV1f3fbSuNeV+agss726ct6B5vNTDdQbQqbIOJoS1UsKDGyBaVZpZ9tGf49u5DdC4LKsuTXd4dpFPzWi6PN3tqy6OdZiqSIcQYhXZp8nQqrRNM7+2q5N7O4FivTZq8+Vbzg0oES2rvd/3B8vDblPO5vq/+Iu/+P/E/wBg2QjSsmeiawAAAABJRU5ErkJggg==;" vertex="1" parent="1">
          <mxGeometry x="1130" y="540" width="202" height="250" as="geometry" />
        </mxCell>
        <mxCell id="S38nwoEREeJHjfIfCg4B-9" value="" style="ellipse;shape=cloud;whiteSpace=wrap;html=1;" vertex="1" parent="1">
          <mxGeometry x="890" y="280" width="260" height="100" as="geometry" />
        </mxCell>
        <mxCell id="S38nwoEREeJHjfIfCg4B-10" value="" style="shape=image;verticalLabelPosition=bottom;labelBackgroundColor=default;verticalAlign=top;aspect=fixed;imageAspect=0;image=data:image/png,iVBORw0KGgoAAAANSUhEUgAAAZAAAAAjCAMAAACNSKyRAAAABGdBTUEAAK/INwWK6QAAABl0RVh0U29mdHdhcmUAQWRvYmUgSW1hZ2VSZWFkeXHJZTwAAAAzUExURYCZgL/Mv0BmQO/y7xBAECBNIDBZMN/l33CNcFBzUGCAYI+lj5+yn6+/r8/Zz////wAzAFM9svoAAAX1SURBVHja7FlJtuQoDGSep/uftgVGstNOnFX9etELWP00IIkITfBZ2+N/NdiGYBOyxyZkE7LHJmQTsscmZBOyxyZkE7LHfza0oj+N+hfb9YMQw1jiMKKhT5FzW2u1CT95TVPzk4EdsKRytxajWf/AU0BDVeZcwqYSl6YrFsea4tbWTHXq8xRDlSNVbth3amIMzxD0QrdnAS0PK92Z45jyeKL9UqCG3I9wgY+xsc+dmucuL+WDkIHrGDSDH2TENRbPXadShmusXonREr+UiYogwX4Zv1XWg+q0tGYcSNbLT2XJnEOVKlUO7qucqMBvxG2VI2DDPJ2rC91wplKHMh6PgydLRuDuBLOHQeFTyuXchzGhWvGFkHis5hUZrble5fWNc8pZAu5YY9dikpwEsOqQkClYrxMqH3FlgZelNR2YWk4kOipBTlVhIuriiOFU87HEKrSiLgkJcfLJ6kq3Es4yywRHIcQdnA6dNgfew5xbOaXYQ4ws8oOQVJNqXwgxzAnhc0aLW3XhlkjQQwq6JZPhlxjIVVGoZkKQGU12+leFA0sFHNs79LenNQMxT04ynD44UKWEmWgX28Z2nTOCAjGifxDC2Ay7k5AvuhWrTJiTBnGjJlY9qonKbJpYOWRDIULJZDMffIRvRT2i8kyWViFui6Y7ahLIuPglBmmAbQ/j14REigGxtAb8nRl1prBzLUxMCBClVImQGSxLIzohxwEZf9F9o7T7n4cvOhV0TczvaaoqHAsv6eYtp5lN2cPZCFIixDvG/NWZJ5SOQo4VKKtOvInJ0kM1Y17oU4qGD0K9RwgIFRBqlAqe1gAA+pq9L0TPpocKDIFSBSRT/8nenRDOrC1HN7LWfScEqrqAutIgTc0Ppd2gwBnFL15WihbfCSkKlAYR+Jmy6sjI1yJqR40t6Vp8ewkxazFUwrkh4MYuGV4IkdgulLa2JufBillG3glZJkIMpK+esl8I0cz1newk5Kn7TgizkHts9ZHH9gF/T2KTkKiHZ8ZLmS41+FWE3DoU6gqkvgKlunP5+664FqOBCl6ugsQd629dFnUkbWmNOpIvKRf1HnRnJ8WJkGY8ZLleAZaEAIYM9ERW10jcCYGwL9WU3ApmBn4eht060HwWdXDcFSEc+1PCLXURWX20NaGJdB6c19CxDy9iYD2XEvpTiwdgY5OMbylLQiqEK42UGEdfrAlS6V6wLRH0wDafaWMSAvsFdAo+rgmJvYuyHFqXukbi0RbUkKW21aC3Mnlm1kmIRErOprRFLLZfUtbhxqkSBN49rbWtnARDohTmhxhyIW4TEqLcr6KelejDJ16X1pQy2kh7ZmRCbBbhSBcnPueGNFGssy9dVl/iq7O2viBxJ6QU6VKqdInx5JF5cgS35SPBZ5riLbB43LXYs/M3x10X4xxS8rPuhurkBWrO1S8xmFPBrkyF/9frArvkmpU1mjIAlrTLhatMTYhOoS7rQDumd0Ka59LL+oLEnRC4fzWoILVSDpvTGtMlZ2YQ4aiX7zGt4Gf5cg+JnCAnQgIbbvqROSW/ZCwIGBHGmrUYWZXpvg7e7JAQHccm9RIhTY/pYMvKGidNb994puTAizpEGsvnpvE6oIPFBviAy0P8/iDEQDuW6hsSN0J8r4kuXIre6GeVL8grVpeGLd+8RB6MPC+G9CzCkD55RBj3n46Qr7+OxwGe1ErMpT5rNP3YVLL53WVhOD6toV5P4ZrY15TxXhHp+WLqFldCtJD1ByHNdwvekLgRovpPZehppgU6OL4N0K3oJGTA5jhgejcny9ulqvs2js9EcbHK3Z+uvohxA36Z6VnP0Cb+u8ui0n+3Rj2ugU0h/jLRY+J4FsQXJySk1/W66rqnI0Ndp+L7FYnGPwvLYY45o8iP7rIktJOuyOcdaHokpJkHIUrfL9QQtT0lsHukfuwSAq4d/UFgLQb0MWauwSBEYP0++ZKzvO80Sk5PxH9izbBHCPO2AE3w6tcS7c1f6f6LJ3q9/x+y/0G1xyZkE7LHJmQTsscmZBOyxyZkj/v4R4ABAMAnKsk5qoXTAAAAAElFTkSuQmCC;" vertex="1" parent="1">
          <mxGeometry x="940" y="325" width="171.43" height="15" as="geometry" />
        </mxCell>
      </root>
    </mxGraphModel>
  </diagram>
</mxfile>
